<mxfile host="app.diagrams.net" agent="Mozilla/5.0 (Windows NT 10.0; Win64; x64) AppleWebKit/537.36 (KHTML, like Gecko) Chrome/129.0.0.0 Safari/537.36" version="24.7.17">
  <diagram name="Página-1" id="PVZYJ7M4i5BYHEAH85xn">
    <mxGraphModel dx="1234" dy="724" grid="1" gridSize="10" guides="1" tooltips="1" connect="1" arrows="1" fold="1" page="1" pageScale="1" pageWidth="827" pageHeight="1169" math="0" shadow="0">
      <root>
        <mxCell id="0" />
        <mxCell id="1" parent="0" />
        <mxCell id="sHFgpYJzz6xhPzKmP05X-1" value="Aluno" style="shape=umlFrame;whiteSpace=wrap;html=1;pointerEvents=0;" parent="1" vertex="1">
          <mxGeometry x="290" y="230" width="670" height="450" as="geometry" />
        </mxCell>
        <mxCell id="sHFgpYJzz6xhPzKmP05X-3" style="edgeStyle=orthogonalEdgeStyle;rounded=0;orthogonalLoop=1;jettySize=auto;html=1;" parent="1" source="sHFgpYJzz6xhPzKmP05X-2" target="sHFgpYJzz6xhPzKmP05X-4" edge="1">
          <mxGeometry relative="1" as="geometry">
            <mxPoint x="370" y="385" as="targetPoint" />
          </mxGeometry>
        </mxCell>
        <mxCell id="sHFgpYJzz6xhPzKmP05X-2" value="" style="ellipse;html=1;" parent="1" vertex="1">
          <mxGeometry x="320" y="370" width="30" height="30" as="geometry" />
        </mxCell>
        <mxCell id="sHFgpYJzz6xhPzKmP05X-6" style="edgeStyle=orthogonalEdgeStyle;rounded=0;orthogonalLoop=1;jettySize=auto;html=1;entryX=0;entryY=0.5;entryDx=0;entryDy=0;" parent="1" source="sHFgpYJzz6xhPzKmP05X-4" target="sHFgpYJzz6xhPzKmP05X-5" edge="1">
          <mxGeometry relative="1" as="geometry" />
        </mxCell>
        <mxCell id="sHFgpYJzz6xhPzKmP05X-4" value="Acessa conteúdo" style="html=1;align=center;verticalAlign=top;rounded=1;absoluteArcSize=1;arcSize=10;dashed=0;whiteSpace=wrap;" parent="1" vertex="1">
          <mxGeometry x="410" y="365" width="140" height="40" as="geometry" />
        </mxCell>
        <mxCell id="sHFgpYJzz6xhPzKmP05X-7" style="edgeStyle=orthogonalEdgeStyle;rounded=0;orthogonalLoop=1;jettySize=auto;html=1;" parent="1" source="sHFgpYJzz6xhPzKmP05X-5" target="sHFgpYJzz6xhPzKmP05X-10" edge="1">
          <mxGeometry relative="1" as="geometry">
            <mxPoint x="635" y="320" as="targetPoint" />
          </mxGeometry>
        </mxCell>
        <mxCell id="sHFgpYJzz6xhPzKmP05X-8" style="edgeStyle=orthogonalEdgeStyle;rounded=0;orthogonalLoop=1;jettySize=auto;html=1;" parent="1" source="sHFgpYJzz6xhPzKmP05X-5" target="sHFgpYJzz6xhPzKmP05X-9" edge="1">
          <mxGeometry relative="1" as="geometry">
            <mxPoint x="710" y="385" as="targetPoint" />
          </mxGeometry>
        </mxCell>
        <mxCell id="sHFgpYJzz6xhPzKmP05X-5" value="" style="rhombus;" parent="1" vertex="1">
          <mxGeometry x="620" y="370" width="30" height="30" as="geometry" />
        </mxCell>
        <mxCell id="sHFgpYJzz6xhPzKmP05X-11" style="edgeStyle=orthogonalEdgeStyle;rounded=0;orthogonalLoop=1;jettySize=auto;html=1;" parent="1" source="sHFgpYJzz6xhPzKmP05X-9" target="sHFgpYJzz6xhPzKmP05X-12" edge="1">
          <mxGeometry relative="1" as="geometry">
            <mxPoint x="890" y="390" as="targetPoint" />
          </mxGeometry>
        </mxCell>
        <mxCell id="sHFgpYJzz6xhPzKmP05X-9" value="Por links ou Arquivos" style="html=1;align=center;verticalAlign=top;rounded=1;absoluteArcSize=1;arcSize=10;dashed=0;whiteSpace=wrap;" parent="1" vertex="1">
          <mxGeometry x="705" y="365" width="140" height="40" as="geometry" />
        </mxCell>
        <mxCell id="sHFgpYJzz6xhPzKmP05X-13" style="edgeStyle=orthogonalEdgeStyle;rounded=0;orthogonalLoop=1;jettySize=auto;html=1;" parent="1" source="sHFgpYJzz6xhPzKmP05X-10" target="sHFgpYJzz6xhPzKmP05X-14" edge="1">
          <mxGeometry relative="1" as="geometry">
            <mxPoint x="635" y="260" as="targetPoint" />
          </mxGeometry>
        </mxCell>
        <mxCell id="sHFgpYJzz6xhPzKmP05X-10" value="Textual" style="html=1;align=center;verticalAlign=top;rounded=1;absoluteArcSize=1;arcSize=10;dashed=0;whiteSpace=wrap;" parent="1" vertex="1">
          <mxGeometry x="565" y="300" width="140" height="40" as="geometry" />
        </mxCell>
        <mxCell id="sHFgpYJzz6xhPzKmP05X-12" value="" style="ellipse;html=1;shape=endState;fillColor=#000000;" parent="1" vertex="1">
          <mxGeometry x="890" y="370" width="30" height="30" as="geometry" />
        </mxCell>
        <mxCell id="sHFgpYJzz6xhPzKmP05X-14" value="" style="ellipse;html=1;shape=endState;fillColor=#000000;" parent="1" vertex="1">
          <mxGeometry x="620" y="240" width="30" height="30" as="geometry" />
        </mxCell>
        <mxCell id="sHFgpYJzz6xhPzKmP05X-17" style="edgeStyle=orthogonalEdgeStyle;rounded=0;orthogonalLoop=1;jettySize=auto;html=1;" parent="1" source="sHFgpYJzz6xhPzKmP05X-16" edge="1">
          <mxGeometry relative="1" as="geometry">
            <mxPoint x="410" y="490" as="targetPoint" />
          </mxGeometry>
        </mxCell>
        <mxCell id="sHFgpYJzz6xhPzKmP05X-16" value="" style="ellipse;html=1;" parent="1" vertex="1">
          <mxGeometry x="320" y="475" width="30" height="30" as="geometry" />
        </mxCell>
        <mxCell id="sHFgpYJzz6xhPzKmP05X-20" style="edgeStyle=orthogonalEdgeStyle;rounded=0;orthogonalLoop=1;jettySize=auto;html=1;entryX=0;entryY=0.5;entryDx=0;entryDy=0;" parent="1" source="sHFgpYJzz6xhPzKmP05X-18" target="sHFgpYJzz6xhPzKmP05X-22" edge="1">
          <mxGeometry relative="1" as="geometry">
            <mxPoint x="615" y="490" as="targetPoint" />
          </mxGeometry>
        </mxCell>
        <mxCell id="sHFgpYJzz6xhPzKmP05X-18" value="Acessa conteúdo" style="html=1;align=center;verticalAlign=top;rounded=1;absoluteArcSize=1;arcSize=10;dashed=0;whiteSpace=wrap;" parent="1" vertex="1">
          <mxGeometry x="410" y="470" width="140" height="40" as="geometry" />
        </mxCell>
        <mxCell id="sHFgpYJzz6xhPzKmP05X-25" style="edgeStyle=orthogonalEdgeStyle;rounded=0;orthogonalLoop=1;jettySize=auto;html=1;entryX=0;entryY=0.5;entryDx=0;entryDy=0;" parent="1" source="sHFgpYJzz6xhPzKmP05X-22" target="sHFgpYJzz6xhPzKmP05X-24" edge="1">
          <mxGeometry relative="1" as="geometry" />
        </mxCell>
        <mxCell id="sHFgpYJzz6xhPzKmP05X-22" value="Realiza comentário" style="html=1;align=center;verticalAlign=top;rounded=1;absoluteArcSize=1;arcSize=10;dashed=0;whiteSpace=wrap;" parent="1" vertex="1">
          <mxGeometry x="630" y="470" width="140" height="40" as="geometry" />
        </mxCell>
        <mxCell id="sHFgpYJzz6xhPzKmP05X-24" value="" style="ellipse;html=1;shape=endState;fillColor=#000000;" parent="1" vertex="1">
          <mxGeometry x="890" y="475" width="30" height="30" as="geometry" />
        </mxCell>
        <mxCell id="sHFgpYJzz6xhPzKmP05X-26" style="edgeStyle=orthogonalEdgeStyle;rounded=0;orthogonalLoop=1;jettySize=auto;html=1;" parent="1" source="sHFgpYJzz6xhPzKmP05X-27" edge="1">
          <mxGeometry relative="1" as="geometry">
            <mxPoint x="420" y="615" as="targetPoint" />
          </mxGeometry>
        </mxCell>
        <mxCell id="sHFgpYJzz6xhPzKmP05X-27" value="" style="ellipse;html=1;" parent="1" vertex="1">
          <mxGeometry x="320" y="600" width="30" height="30" as="geometry" />
        </mxCell>
        <mxCell id="sHFgpYJzz6xhPzKmP05X-28" style="edgeStyle=orthogonalEdgeStyle;rounded=0;orthogonalLoop=1;jettySize=auto;html=1;entryX=0;entryY=0.5;entryDx=0;entryDy=0;" parent="1" source="sHFgpYJzz6xhPzKmP05X-29" target="sHFgpYJzz6xhPzKmP05X-31" edge="1">
          <mxGeometry relative="1" as="geometry">
            <mxPoint x="625" y="615" as="targetPoint" />
          </mxGeometry>
        </mxCell>
        <mxCell id="sHFgpYJzz6xhPzKmP05X-29" value="Acessa conteúdo" style="html=1;align=center;verticalAlign=top;rounded=1;absoluteArcSize=1;arcSize=10;dashed=0;whiteSpace=wrap;" parent="1" vertex="1">
          <mxGeometry x="414" y="595" width="140" height="40" as="geometry" />
        </mxCell>
        <mxCell id="sHFgpYJzz6xhPzKmP05X-30" style="edgeStyle=orthogonalEdgeStyle;rounded=0;orthogonalLoop=1;jettySize=auto;html=1;entryX=0;entryY=0.5;entryDx=0;entryDy=0;" parent="1" source="sHFgpYJzz6xhPzKmP05X-31" target="sHFgpYJzz6xhPzKmP05X-32" edge="1">
          <mxGeometry relative="1" as="geometry" />
        </mxCell>
        <mxCell id="sHFgpYJzz6xhPzKmP05X-31" value="Realiza avaliação&amp;nbsp;" style="html=1;align=center;verticalAlign=top;rounded=1;absoluteArcSize=1;arcSize=10;dashed=0;whiteSpace=wrap;" parent="1" vertex="1">
          <mxGeometry x="640" y="595" width="140" height="40" as="geometry" />
        </mxCell>
        <mxCell id="sHFgpYJzz6xhPzKmP05X-32" value="" style="ellipse;html=1;shape=endState;fillColor=#000000;" parent="1" vertex="1">
          <mxGeometry x="890" y="600" width="30" height="30" as="geometry" />
        </mxCell>
        <mxCell id="-w1i8-EBscpUorj-aSAl-1" style="edgeStyle=orthogonalEdgeStyle;rounded=0;orthogonalLoop=1;jettySize=auto;html=1;exitX=0.5;exitY=1;exitDx=0;exitDy=0;" edge="1" parent="1" source="sHFgpYJzz6xhPzKmP05X-4" target="sHFgpYJzz6xhPzKmP05X-4">
          <mxGeometry relative="1" as="geometry" />
        </mxCell>
      </root>
    </mxGraphModel>
  </diagram>
</mxfile>
